{
    "asset" : {
        "generator" : "Khronos glTF Blender I/O v1.6.16",
        "version" : "2.0"
    },
    "scene" : 0,
    "scenes" : [
        {
            "name" : "Scene",
            "nodes" : [
                0
            ]
        }
    ],
    "nodes" : [
        {
            "mesh" : 0,
            "name" : "10477_Satellite_v1_L3",
            "rotation" : [
                0.7071068286895752,
                0,
                0,
                0.7071068286895752
            ],
            "scale" : [
                0.03882063180208206,
                0.03882063180208206,
                0.03882063180208206
            ],
            "translation" : [
                0,
                0,
                -32.08524703979492
            ]
        }
    ],
    "materials" : [
        {
            "doubleSided" : true,
            "name" : "10477_Satellite_v1",
            "pbrMetallicRoughness" : {
                "baseColorTexture" : {
                    "index" : 0
                },
                "metallicFactor" : 0,
                "roughnessFactor" : 0.8174257874488831
            }
        }
    ],
    "meshes" : [
        {
            "name" : "10477_Satellite_v1_L3",
            "primitives" : [
                {
                    "attributes" : {
                        "POSITION" : 0,
                        "NORMAL" : 1,
                        "TEXCOORD_0" : 2
                    },
                    "indices" : 3,
                    "material" : 0
                }
            ]
        }
    ],
    "textures" : [
        {
            "sampler" : 0,
            "source" : 0
        }
    ],
    "images" : [
        {
            "mimeType" : "image/jpeg",
            "name" : "10477_Satellite_v1_Diffuse",
            "uri" : "10477_Satellite_v1_Diffuse.jpg"
        }
    ],
    "accessors" : [
        {
            "bufferView" : 0,
            "componentType" : 5126,
            "count" : 44233,
            "max" : [
                2561.54833984375,
                1207.884521484375,
                409.01519775390625
            ],
            "min" : [
                -2561.54833984375,
                4.073400020599365,
                -402.2244873046875
            ],
            "type" : "VEC3"
        },
        {
            "bufferView" : 1,
            "componentType" : 5126,
            "count" : 44233,
            "type" : "VEC3"
        },
        {
            "bufferView" : 2,
            "componentType" : 5126,
            "count" : 44233,
            "type" : "VEC2"
        },
        {
            "bufferView" : 3,
            "componentType" : 5123,
            "count" : 236928,
            "type" : "SCALAR"
        }
    ],
    "bufferViews" : [
        {
            "buffer" : 0,
            "byteLength" : 530796,
            "byteOffset" : 0
        },
        {
            "buffer" : 0,
            "byteLength" : 530796,
            "byteOffset" : 530796
        },
        {
            "buffer" : 0,
            "byteLength" : 353864,
            "byteOffset" : 1061592
        },
        {
            "buffer" : 0,
            "byteLength" : 473856,
            "byteOffset" : 1415456
        }
    ],
    "samplers" : [
        {
            "magFilter" : 9729,
            "minFilter" : 9987
        }
    ],
    "buffers" : [
        {
            "byteLength" : 1889312,
            "uri" : "satellite.bin"
        }
    ]
}
